# xmcd CD database file
#
# Track frame offsets:
#	150
#	31596
#	62239
#	88162
#	118809
#	146301
#	178276
#	206173
#	208387
#	236458
#	270062
#
# Disc length: 3909 seconds
#
# Revision: 12
# Processed by: cddbd v1.5.2PL0 Copyright (c) Steve Scherf et al.
# Submitted via: CDex 1.70beta2
#
DISCID=9f0f430b
DTITLE=Marcus Miller - Afrodeezia
DYEAR=2015
DGENRE=Jazz
TTITLE0=Hylife
TTITLE1=B's River
TTITLE2=Preacher's Kid [song for William H]
TTITLE3=We Were There
TTITLE4=Papa Was a Rolling Stone
TTITLE5=I Still Believe I Hear [Je Crois Entendre Encore] [feat. Ben Hong]
TTITLE6=Son of Macbeth
TTITLE7=Prism: Interlude
TTITLE8=Xtraordinary
TTITLE9=Water Dancer
TTITLE10=I Can't Breathe [feat. Chuck D., Mocean Worker]
EXTD=YEAR: 2015
EXTT0=
EXTT1=
EXTT2=
EXTT3=
EXTT4=
EXTT5=
EXTT6=
EXTT7=
EXTT8=
EXTT9=
EXTT10=
PLAYORDER=
